<svg xmlns="http://www.w3.org/2000/svg" xmlns:xlink="http://www.w3.org/1999/xlink" width="1000" zoomAndPan="magnify" viewBox="0 0 750 749.999995" height="1000" preserveAspectRatio="xMidYMid meet" version="1.0"><path fill="#1a1a1a" d="M 369.335938 54.554688 C 367.847656 55.199219 361.378906 58.753906 354.960938 62.453125 C 342.375 69.707031 311.070312 87.039062 291.300781 97.699219 C 284.558594 101.335938 276.378906 105.808594 273.125 107.636719 C 266.214844 111.519531 247.105469 121.839844 241 124.984375 C 238.671875 126.183594 229.921875 130.964844 221.554688 135.617188 C 213.183594 140.265625 202.914062 145.941406 198.726562 148.226562 C 194.542969 150.511719 189.976562 153.054688 188.582031 153.882812 C 158.941406 171.457031 150.046875 176.617188 133.207031 186.003906 C 114.835938 196.242188 103.910156 203.867188 101.105469 208.40625 C 99.519531 210.976562 99.363281 213.570312 98.460938 252.484375 C 97.933594 275.226562 97.207031 304.867188 96.847656 318.351562 C 95.570312 366.410156 97.476562 518.617188 99.5 530.128906 C 100.027344 533.152344 100.96875 536.621094 101.582031 537.839844 C 103.144531 540.929688 109.941406 546.863281 116.375 550.753906 C 119.355469 552.554688 126.167969 556.855469 131.515625 560.308594 C 140.082031 565.839844 156.6875 575.898438 179.707031 589.5 C 183.65625 591.835938 194.878906 598.300781 204.644531 603.871094 C 214.410156 609.4375 225.566406 615.859375 229.4375 618.136719 C 233.308594 620.417969 236.679688 622.28125 236.925781 622.28125 C 237.171875 622.28125 241.421875 624.699219 246.371094 627.652344 C 251.320312 630.601562 257.464844 634.167969 260.019531 635.574219 C 262.578125 636.980469 272.277344 642.40625 281.578125 647.628906 C 290.878906 652.851562 304.195312 660.253906 311.167969 664.074219 C 318.144531 667.894531 325.753906 672.09375 328.078125 673.40625 C 347.320312 684.273438 363.5 693.101562 368.933594 695.695312 C 374.628906 698.414062 376.195312 698.792969 381.761719 698.78125 C 389.257812 698.769531 394.75 696.617188 414.152344 686.078125 C 429.058594 677.984375 470.292969 654.382812 475.601562 650.910156 C 476.765625 650.144531 483.414062 646.214844 490.375 642.175781 C 497.339844 638.136719 507.1875 631.957031 512.257812 628.449219 C 517.332031 624.941406 524.953125 620.085938 529.191406 617.660156 C 534.328125 614.699219 539.433594 611.683594 544.503906 608.617188 C 548.691406 606.074219 556.488281 601.390625 561.835938 598.210938 C 581.089844 586.769531 627.195312 556.394531 639.179688 547.257812 C 649.570312 539.339844 651.363281 536.300781 652.347656 524.933594 C 653.578125 510.71875 653.683594 324.113281 652.46875 302.359375 C 651.902344 292.167969 650.863281 267.867188 650.164062 248.351562 C 649.464844 228.839844 648.652344 211.878906 648.359375 210.660156 C 647.492188 207.039062 645.003906 202.679688 642.441406 200.289062 C 640.101562 198.105469 627.109375 188.957031 612.5625 179.25 C 596.824219 168.746094 568.957031 151.511719 545.535156 137.796875 C 540.320312 134.742188 531.296875 129.453125 525.484375 126.042969 C 518.523438 121.980469 511.527344 117.972656 504.5 114.027344 C 498.769531 110.828125 492.683594 107.335938 490.972656 106.265625 C 486.675781 103.582031 477.429688 98.457031 468.675781 93.90625 C 445.097656 81.652344 437.398438 77.6875 424.28125 71.042969 C 416.28125 66.988281 409.054688 63.453125 408.21875 63.179688 C 407.382812 62.90625 404.988281 61.664062 402.898438 60.414062 C 395.335938 55.894531 386.585938 53.308594 378.988281 53.34375 C 374.988281 53.363281 370.894531 53.875 369.335938 54.554688 M 380.539062 79.195312 L 379.929688 89.863281 L 382.75 92.769531 C 384.296875 94.367188 392.222656 99.347656 400.359375 103.835938 C 419.441406 114.355469 423.960938 117.253906 424.804688 119.519531 C 425.183594 120.535156 425.75 128.785156 426.0625 137.855469 C 426.371094 146.921875 426.972656 160.425781 427.398438 167.867188 C 427.824219 175.304688 428.421875 187.398438 428.726562 194.738281 L 429.285156 208.085938 L 434.480469 211.625 C 442.507812 217.097656 460.304688 227.730469 474.757812 235.691406 C 481.964844 239.664062 489.953125 244.3125 492.511719 246.027344 C 495.070312 247.738281 500.207031 250.789062 503.925781 252.804688 C 507.644531 254.816406 512.78125 257.878906 515.339844 259.601562 C 517.894531 261.328125 522.714844 264.167969 526.046875 265.910156 L 532.101562 269.078125 L 541.898438 263.316406 C 547.285156 260.144531 551.691406 257.257812 551.691406 256.898438 C 551.691406 256.542969 550.085938 255.429688 548.125 254.425781 C 546.164062 253.425781 543.59375 251.953125 542.417969 251.15625 C 537.191406 247.609375 499.316406 225.308594 492.933594 222.023438 C 490.007812 220.515625 488.289062 220.316406 480.148438 220.53125 C 468.902344 220.828125 465.1875 219.675781 460.777344 214.519531 C 457.320312 210.480469 455.789062 205.609375 456.527344 200.996094 C 458.214844 190.429688 467.324219 183.371094 477.527344 184.726562 C 482.492188 185.382812 484.410156 186.246094 487.726562 189.316406 C 491.082031 192.421875 492.558594 195.597656 493.394531 201.527344 C 494.292969 207.882812 495.628906 209.28125 508.152344 216.984375 C 536.84375 234.640625 561.964844 249.449219 563.21875 249.449219 C 564.78125 249.449219 571.585938 245.367188 588.285156 234.410156 C 594.234375 230.507812 600.484375 226.933594 602.175781 226.464844 C 603.957031 225.972656 606.964844 223.914062 609.308594 221.582031 C 611.539062 219.367188 615.84375 215.933594 618.878906 213.957031 C 621.914062 211.980469 624.398438 209.839844 624.398438 209.203125 C 624.398438 208.570312 622.78125 207 620.804688 205.71875 C 618.828125 204.4375 614.457031 201.378906 611.09375 198.917969 C 607.726562 196.460938 603.28125 193.71875 601.207031 192.832031 C 597.160156 191.097656 571.847656 176.441406 558.03125 167.828125 C 553.382812 164.933594 548.054688 161.753906 546.195312 160.761719 C 544.335938 159.773438 538.820312 156.484375 533.9375 153.460938 C 529.054688 150.433594 521.066406 145.65625 516.183594 142.847656 C 511.300781 140.039062 503.121094 135.117188 498.007812 131.917969 C 492.890625 128.714844 488.460938 126.078125 488.160156 126.054688 C 487.859375 126.035156 485.195312 124.550781 482.242188 122.761719 C 476.882812 119.507812 450.3125 105.160156 436.714844 98.171875 C 432.761719 96.140625 429.148438 94.199219 428.683594 93.855469 C 428.21875 93.511719 424.222656 91.335938 419.804688 89.023438 C 409.507812 83.628906 399.25 78.160156 389.03125 72.617188 C 384.894531 70.367188 381.425781 68.527344 381.324219 68.527344 C 381.226562 68.527344 380.871094 73.328125 380.539062 79.195312 M 335.625 95.6875 C 333.4375 96.519531 330.753906 98.039062 329.65625 99.066406 C 326.578125 101.960938 324.273438 107.496094 324.273438 111.996094 C 324.273438 115.359375 323.863281 116.417969 321.855469 118.28125 C 319.511719 120.453125 290.625 138.03125 277.773438 145.101562 C 274.285156 147.019531 267.25 150.984375 262.132812 153.910156 C 256.527344 157.117188 250.898438 160.285156 245.25 163.417969 L 237.664062 167.597656 L 233.96875 165.804688 C 228.519531 163.15625 223.539062 162.691406 219.683594 164.472656 C 214.785156 166.734375 210.453125 171.34375 209.277344 175.53125 C 206.296875 186.179688 213.34375 196.039062 224.511719 196.847656 C 228.394531 197.128906 229.925781 196.78125 233.78125 194.753906 C 239.339844 191.832031 241.367188 188.710938 242.011719 182.0625 C 242.320312 178.855469 243.070312 176.519531 244.179688 175.296875 C 245.117188 174.269531 250.628906 170.464844 256.429688 166.84375 C 262.234375 163.222656 269.394531 158.65625 272.339844 156.695312 C 277.21875 153.453125 288.828125 146.546875 304.40625 137.617188 C 307.660156 135.75 312.414062 132.8125 314.972656 131.082031 C 317.53125 129.355469 321.691406 126.894531 324.222656 125.617188 L 328.820312 123.289062 L 333.523438 125.707031 C 340.035156 129.054688 344.644531 128.917969 350.417969 125.214844 C 355.402344 122.015625 356.917969 119.597656 357.71875 113.5625 C 359.390625 100.929688 347.390625 91.222656 335.625 95.6875 M 337.28125 104.21875 C 333.886719 106.824219 333.601562 107.375 333.585938 111.320312 C 333.570312 115.757812 336.023438 119.003906 339.957031 119.742188 C 342.332031 120.1875 343.4375 119.871094 345.800781 118.066406 C 350.847656 114.21875 350.488281 107.296875 345.058594 103.738281 C 342.191406 101.863281 340.1875 101.984375 337.28125 104.21875 M 381.761719 133.945312 C 381.761719 153.476562 381.507812 159.832031 380.703125 160.472656 C 380.125 160.9375 376.605469 162.273438 372.886719 163.441406 C 369.164062 164.609375 363.015625 166.941406 359.222656 168.617188 C 355.425781 170.296875 351.929688 171.671875 351.449219 171.671875 C 350.96875 171.671875 349.984375 172.515625 349.261719 173.550781 C 348.253906 174.988281 347.945312 177.726562 347.945312 185.238281 C 347.945312 194.339844 347.808594 195.171875 346.042969 196.757812 C 343.382812 199.152344 325.226562 210.558594 324.078125 210.558594 C 323.859375 210.558594 320.292969 212.65625 316.15625 215.214844 C 312.019531 217.773438 307.722656 220.257812 306.609375 220.734375 C 305.496094 221.210938 300.550781 224.207031 295.617188 227.386719 C 283.214844 235.394531 267.507812 245.253906 261.789062 248.628906 C 258.507812 250.566406 255.023438 252.78125 250.121094 256.046875 C 244.945312 259.496094 246.082031 259.75 229.585938 251.507812 C 212.179688 242.8125 195.683594 235.046875 189.96875 232.855469 C 185.816406 231.265625 184.328125 231.019531 183.417969 231.773438 C 181.101562 233.695312 177.847656 231.800781 230.472656 259.210938 C 234.976562 261.558594 240.167969 263.976562 242.007812 264.582031 C 245.191406 265.632812 245.535156 265.5625 249.09375 263.179688 C 253.191406 260.433594 270.921875 249.851562 272.28125 249.34375 C 272.746094 249.171875 275.976562 247.359375 279.464844 245.316406 C 296.003906 235.636719 301.433594 232.527344 306.519531 229.808594 C 309.542969 228.191406 315.058594 224.988281 318.777344 222.6875 C 322.496094 220.382812 331.757812 215.097656 339.359375 210.9375 C 346.957031 206.777344 354.089844 202.535156 355.210938 201.511719 C 357.121094 199.761719 357.246094 199.09375 357.246094 190.367188 C 357.246094 185.257812 357.59375 180.15625 358.023438 179.03125 C 358.960938 176.5625 363.027344 174.808594 372.886719 172.609375 C 379.125 171.21875 380.152344 171.175781 381.050781 172.253906 C 381.71875 173.058594 382.558594 181.679688 383.453125 196.886719 C 384.238281 210.214844 385.25 221.054688 385.804688 222.082031 C 386.34375 223.070312 388.789062 225.113281 391.246094 226.628906 C 399.871094 231.941406 434.875 255.105469 443.476562 261.191406 C 448.488281 264.734375 475.589844 281.347656 483.222656 285.558594 C 485.785156 286.96875 490.027344 288.800781 492.648438 289.628906 L 497.421875 291.132812 L 501.4375 288.679688 C 510.757812 282.992188 513.414062 281.464844 516.820312 279.835938 C 518.796875 278.886719 520.410156 277.589844 520.410156 276.949219 C 520.410156 276.308594 518.414062 274.667969 515.972656 273.300781 C 490.378906 258.980469 485.28125 255.941406 482.367188 253.292969 C 481.203125 252.234375 476.640625 249.730469 472.222656 247.722656 C 467.804688 245.71875 461.148438 242.226562 457.425781 239.96875 C 453.707031 237.710938 446.445312 233.308594 441.285156 230.183594 C 421.679688 218.320312 419.175781 216.492188 418.597656 213.632812 C 418.078125 211.054688 413.902344 139.027344 413.894531 132.441406 C 413.890625 129.679688 413.335938 128.632812 410.53125 126.042969 C 407.769531 123.492188 383.460938 108.265625 382.152344 108.265625 C 381.9375 108.265625 381.761719 119.820312 381.761719 133.945312 M 441.789062 135.175781 L 441.789062 141.753906 L 447.191406 145.722656 C 450.164062 147.90625 452.867188 149.691406 453.199219 149.691406 C 453.53125 149.691406 459.183594 152.875 465.761719 156.765625 C 472.335938 160.65625 482.664062 166.613281 488.707031 170 C 494.753906 173.390625 502.207031 177.785156 505.273438 179.769531 C 508.34375 181.75 512.527344 183.808594 514.574219 184.339844 C 524.34375 186.886719 529.710938 189.878906 529.710938 192.789062 C 529.710938 193.769531 531.691406 195.761719 534.914062 198.027344 C 539.683594 201.382812 540.210938 202.066406 541.285156 206.332031 C 544.34375 218.472656 548.78125 222.585938 559.300781 223.042969 C 565.078125 223.292969 566.027344 223.089844 569.988281 220.777344 C 575.78125 217.394531 578.324219 212.445312 578.320312 204.566406 C 578.320312 199.773438 577.96875 198.492188 575.816406 195.386719 C 572.609375 190.757812 568.558594 188.035156 563.039062 186.800781 C 559.191406 185.9375 557.917969 186.039062 552.84375 187.59375 L 547.042969 189.367188 L 543.238281 187.394531 C 541.144531 186.308594 537.21875 184.78125 534.507812 184 C 531.269531 183.0625 528.375 181.46875 526.054688 179.335938 C 524.113281 177.554688 509.726562 168.660156 494.082031 159.570312 C 464.65625 142.480469 453.441406 135.710938 448.820312 132.257812 C 447.339844 131.152344 445.152344 129.875 443.957031 129.421875 L 441.789062 128.597656 Z M 306.097656 168.019531 C 303.320312 168.785156 299.761719 171.675781 297.144531 175.289062 C 295.109375 178.097656 294.683594 179.527344 294.683594 183.519531 C 294.683594 189.605469 293.214844 191.59375 285.585938 195.847656 C 282.453125 197.59375 274.753906 202.242188 268.476562 206.183594 C 256.566406 213.652344 254.6875 214.777344 245.648438 219.84375 C 242.625 221.535156 239.335938 223.441406 238.339844 224.074219 C 235.921875 225.613281 233.808594 224.777344 208.613281 212.28125 C 197.570312 206.804688 187.40625 202.078125 186.023438 201.777344 C 183.867188 201.3125 182.109375 202.164062 173.609375 207.800781 C 168.164062 211.410156 162.105469 215.316406 160.144531 216.480469 C 158.183594 217.640625 154.703125 219.828125 152.417969 221.339844 C 150.128906 222.851562 148.121094 224.085938 147.960938 224.085938 C 147.796875 224.085938 145.472656 225.40625 142.792969 227.019531 C 140.113281 228.632812 136.261719 230.203125 134.230469 230.507812 C 132.199219 230.8125 130.332031 231.589844 130.085938 232.238281 C 129.839844 232.882812 129.582031 274.671875 129.519531 325.097656 L 129.402344 416.785156 L 125.054688 421.253906 C 119.503906 426.957031 117.984375 430.046875 118.003906 435.613281 C 118.023438 441.523438 120.605469 446.050781 125.785156 449.25 C 131.175781 452.582031 136.042969 453.046875 141.292969 450.722656 C 143.554688 449.722656 146.136719 448.253906 147.035156 447.457031 C 149.476562 445.289062 151.765625 439.683594 151.789062 435.820312 C 151.808594 431.714844 148.402344 424.457031 145.175781 421.726562 C 143.925781 420.667969 141.773438 418.320312 140.394531 416.503906 L 137.886719 413.207031 L 137.871094 329.003906 C 137.863281 282.691406 138.152344 243.753906 138.507812 242.46875 L 139.160156 240.140625 L 143.582031 242.351562 C 148.214844 244.671875 160.511719 251.757812 169.136719 257.074219 C 171.925781 258.792969 176.300781 261.257812 178.859375 262.550781 C 181.417969 263.84375 186.742188 267 190.695312 269.570312 C 195.769531 272.867188 200.84375 276.167969 205.914062 279.46875 C 210.332031 282.34375 219.539062 288.21875 226.378906 292.527344 C 238.730469 300.3125 238.8125 300.382812 239.238281 303.859375 C 239.472656 305.785156 239.90625 308.691406 240.199219 310.320312 C 240.492188 311.949219 241.050781 337.628906 241.441406 367.386719 C 242.117188 419.003906 242.652344 430.527344 244.257812 428 C 246.011719 425.242188 247.210938 402.609375 247.761719 361.890625 C 248.085938 337.945312 248.632812 314.011719 248.972656 308.707031 C 249.644531 298.324219 249.550781 298.519531 255.488281 294.894531 C 256.820312 294.082031 259.621094 292.300781 261.710938 290.9375 C 263.804688 289.574219 268.75 286.664062 272.703125 284.476562 C 276.65625 282.289062 284.1875 277.699219 289.441406 274.273438 C 294.695312 270.851562 299.140625 268.050781 299.316406 268.050781 C 299.851562 268.050781 329.382812 250.382812 335.265625 246.542969 C 338.285156 244.566406 344.488281 240.945312 349.050781 238.492188 C 356.785156 234.332031 368.234375 225.675781 368.234375 223.988281 C 368.234375 223.578125 367.667969 223.242188 366.980469 223.242188 C 365.445312 223.242188 335.828125 239.058594 312.859375 252.140625 C 301.191406 258.789062 288.941406 265.523438 281.390625 269.4375 C 271.84375 274.390625 266.425781 277.554688 266.082031 278.375 C 265.925781 278.742188 265.289062 279.039062 264.664062 279.039062 C 264.042969 279.039062 261.886719 280.289062 259.875 281.8125 C 250.890625 288.625 243.957031 292.589844 243.957031 290.917969 C 243.957031 290.132812 234.953125 284.957031 233.585938 284.957031 C 233.160156 284.957031 231.800781 284.175781 230.5625 283.21875 C 226.074219 279.738281 217.757812 274.890625 204.578125 268.066406 C 197.175781 264.230469 190.546875 260.617188 189.851562 260.027344 C 189.152344 259.441406 185.539062 257.328125 181.820312 255.328125 C 178.097656 253.332031 171.90625 249.863281 168.054688 247.617188 C 164.203125 245.371094 160.894531 243.53125 160.699219 243.53125 C 159.585938 243.53125 149.359375 235.683594 148.894531 234.476562 C 148.503906 233.460938 149.292969 232.203125 151.554688 230.226562 C 155.542969 226.742188 166.019531 219.523438 168.292969 218.691406 C 169.222656 218.351562 173.113281 215.949219 176.941406 213.355469 L 183.898438 208.636719 L 187.929688 210.773438 C 204.652344 219.625 230.800781 232.527344 234.5 233.757812 L 238.996094 235.25 L 244.222656 232.070312 C 247.101562 230.320312 251.164062 227.671875 253.257812 226.179688 C 256.632812 223.777344 275.84375 211.75 284.960938 206.332031 C 286.820312 205.226562 290.589844 202.613281 293.335938 200.527344 L 298.328125 196.730469 L 302.519531 198.21875 C 313.664062 202.175781 322.1875 199.351562 326.066406 190.410156 C 328.167969 185.5625 328.070312 181.308594 325.753906 176.722656 C 323.089844 171.460938 317.980469 168.074219 312.253906 167.78125 C 309.796875 167.65625 307.027344 167.761719 306.097656 168.019531 M 221.046875 173.601562 C 218.582031 175.253906 218.136719 176.078125 217.921875 179.355469 C 217.605469 184.152344 219.816406 187.300781 224.0625 188.097656 C 227.859375 188.808594 229.851562 187.703125 231.667969 183.875 C 233.539062 179.933594 232.8125 175.71875 229.863281 173.398438 C 227.015625 171.160156 224.597656 171.214844 221.046875 173.601562 M 305.324219 178.5 C 301.652344 182.867188 302.851562 188.410156 308.046875 191.074219 C 312.589844 193.402344 318.355469 189.304688 318.355469 183.75 C 318.355469 179.710938 314.523438 175.898438 310.464844 175.898438 C 308.210938 175.898438 307 176.511719 305.324219 178.5 M 470.230469 198.261719 C 467.09375 201.167969 467.234375 204.695312 470.597656 207.527344 C 473.738281 210.171875 476.320312 210.300781 479.292969 207.960938 C 482.136719 205.726562 482.417969 200.464844 479.832031 197.878906 C 477.445312 195.492188 473.03125 195.667969 470.230469 198.261719 M 556.15625 199.746094 C 555.125 200.242188 553.867188 201.90625 553.359375 203.445312 C 552.601562 205.738281 552.695312 206.636719 553.875 208.433594 C 556.695312 212.742188 560.730469 213.433594 563.988281 210.175781 C 568.113281 206.050781 565.753906 198.648438 560.359375 198.78125 C 559.078125 198.8125 557.1875 199.246094 556.15625 199.746094 M 621.300781 227.21875 L 612.707031 232.746094 L 613.1875 258.433594 C 613.636719 282.410156 613.566406 284.226562 612.136719 285.804688 C 611.296875 286.734375 610.050781 287.492188 609.363281 287.492188 C 606.839844 287.492188 595.730469 293.582031 592.988281 296.46875 C 591.476562 298.0625 589.949219 299.640625 588.40625 301.203125 C 586.558594 303.050781 578.652344 308.136719 569.445312 313.394531 C 566.421875 315.121094 562.09375 317.800781 559.824219 319.355469 C 557.550781 320.910156 554.699219 322.421875 553.480469 322.71875 C 551.410156 323.226562 544.382812 327.472656 541.546875 329.933594 C 540.847656 330.539062 539.101562 332.40625 537.664062 334.082031 L 535.046875 337.132812 L 534.464844 358.179688 C 534.148438 369.753906 533.714844 382.457031 533.507812 386.410156 C 533.300781 390.359375 532.910156 409.003906 532.644531 427.835938 C 532.167969 461.273438 532.113281 462.140625 530.300781 464.875 C 527.96875 468.390625 517.367188 475.496094 506.882812 480.566406 C 502.125 482.867188 496.6875 486.34375 493.535156 489.097656 C 490.609375 491.652344 485.476562 495.332031 482.121094 497.273438 C 478.769531 499.214844 474.503906 501.847656 472.644531 503.121094 C 462.824219 509.847656 449.105469 517.851562 441.363281 521.371094 C 435.25 524.148438 426.058594 531.308594 425.386719 533.816406 C 423.636719 540.347656 425.601562 552.914062 429.109375 557.605469 C 432.371094 561.972656 437.410156 572.003906 438.046875 575.402344 C 439.496094 583.121094 432.472656 592.472656 423.761719 594.421875 C 419.746094 595.320312 418.488281 595.269531 414.726562 594.039062 C 406.007812 591.1875 401.777344 586.878906 400.75 579.800781 C 399.742188 572.847656 400.90625 568.683594 405.894531 561.351562 C 408.410156 557.660156 411 553.597656 411.652344 552.320312 C 412.691406 550.285156 417.042969 533.765625 418.546875 526.136719 C 419.230469 522.675781 421.46875 520.824219 434.773438 512.734375 C 440.722656 509.113281 455.863281 499.429688 468.417969 491.210938 C 490.820312 476.542969 505.261719 467.644531 514.492188 462.816406 L 519.144531 460.382812 L 519.773438 454.042969 C 520.117188 450.554688 520.769531 446.636719 521.222656 445.332031 C 521.742188 443.832031 521.851562 423.074219 521.515625 388.691406 C 521.027344 338.484375 521.097656 334.207031 522.4375 331.621094 C 523.980469 328.640625 533.4375 321.988281 537.535156 320.996094 C 540.621094 320.246094 551.28125 313.625 556.914062 308.957031 C 563.515625 303.484375 563.421875 303.558594 563.882812 303.558594 C 564.121094 303.558594 567.15625 301.832031 570.625 299.722656 C 574.097656 297.617188 578.964844 295.292969 581.4375 294.558594 C 587.175781 292.859375 592.839844 289.546875 594.597656 286.867188 C 595.351562 285.714844 597.066406 283.675781 598.40625 282.335938 L 600.839844 279.898438 L 600.574219 260.515625 C 600.425781 249.855469 600.046875 240.875 599.730469 240.558594 C 599.414062 240.246094 594.035156 243.351562 587.777344 247.464844 C 568.464844 260.160156 563.386719 263.253906 555.074219 267.40625 C 550.65625 269.613281 545.140625 273.058594 542.816406 275.066406 C 536.730469 280.320312 531.242188 283.90625 524.878906 286.792969 C 517.421875 290.175781 507.9375 296.503906 507.292969 298.527344 C 506.863281 299.882812 506.050781 312.097656 505.832031 320.464844 C 505.800781 321.628906 505.265625 333.042969 504.636719 345.828125 C 503.222656 374.613281 503.128906 408.1875 504.410156 425.863281 C 504.945312 433.222656 505.433594 440.949219 505.5 443.027344 C 505.628906 447.195312 506.542969 446.398438 495.472656 451.742188 C 489.148438 454.792969 472.476562 463.894531 469.863281 465.722656 C 468.601562 466.605469 463.386719 469.71875 458.273438 472.644531 C 453.15625 475.570312 443.648438 481.269531 437.136719 485.308594 C 430.628906 489.347656 423.546875 493.652344 421.40625 494.871094 C 419.261719 496.089844 415.457031 498.722656 412.949219 500.71875 C 410.445312 502.710938 406.492188 505.671875 404.164062 507.292969 C 398.695312 511.105469 384.308594 522.683594 382.394531 524.8125 C 381.152344 526.199219 380.828125 528.90625 380.359375 541.902344 C 379.941406 553.378906 379.515625 557.449219 378.699219 557.765625 C 378.09375 557.996094 375.398438 557.113281 372.707031 555.800781 C 367.800781 553.414062 365.496094 552.152344 346.675781 541.578125 C 341.097656 538.441406 330.824219 532.738281 323.851562 528.902344 C 316.875 525.0625 309.15625 520.730469 306.691406 519.265625 C 304.230469 517.800781 302.070312 516.605469 301.894531 516.605469 C 301.714844 516.605469 298.402344 514.640625 294.535156 512.242188 C 290.664062 509.84375 281.410156 504.480469 273.96875 500.324219 C 266.53125 496.167969 256.917969 490.519531 252.613281 487.773438 L 244.78125 482.78125 L 241.589844 484.6875 C 239.835938 485.734375 237.652344 487.042969 236.738281 487.597656 C 234.359375 489.03125 231.972656 490.460938 229.585938 491.886719 C 224.503906 494.941406 219.429688 498.011719 214.367188 501.097656 C 202.230469 508.488281 192.671875 514.175781 183.707031 519.339844 C 175.765625 523.910156 164.753906 531.75 164.136719 533.269531 C 163.890625 533.878906 167.726562 536.757812 173.613281 540.378906 C 179.058594 543.722656 184.460938 547.066406 185.621094 547.808594 C 188 549.320312 196.632812 554.234375 205.804688 559.296875 C 242.695312 579.65625 288.042969 607.226562 290.089844 610.535156 C 290.359375 610.976562 290.800781 613.511719 291.066406 616.175781 C 293.015625 635.605469 320.324219 638.347656 324.234375 619.503906 C 324.855469 616.519531 324.917969 613.742188 324.414062 611.507812 C 322.039062 600.925781 309.082031 595.113281 299.160156 600.171875 C 297.097656 601.226562 294.988281 601.742188 294.097656 601.414062 C 291.519531 600.46875 268.804688 587.449219 254.527344 578.734375 C 247.085938 574.195312 237.195312 568.1875 232.542969 565.382812 C 227.894531 562.582031 222.996094 559.53125 221.660156 558.605469 C 220.324219 557.675781 211.761719 552.828125 202.636719 547.828125 C 181.25 536.109375 178.859375 534.648438 178.859375 533.316406 C 178.859375 531.855469 189.867188 524.585938 200.417969 519.078125 C 209.605469 514.28125 228.609375 503.441406 239.183594 496.964844 L 245.824219 492.902344 L 248.90625 494.777344 C 250.601562 495.808594 258.457031 500.699219 266.363281 505.648438 C 274.265625 510.59375 287.773438 518.5625 296.375 523.355469 C 304.976562 528.144531 314.019531 533.339844 316.46875 534.902344 C 318.917969 536.460938 321.058594 537.738281 321.226562 537.738281 C 321.394531 537.738281 324.527344 539.386719 328.1875 541.398438 C 331.84375 543.414062 337.3125 546.40625 340.335938 548.054688 C 343.359375 549.703125 348.941406 552.792969 352.746094 554.921875 C 364.171875 561.324219 373.148438 565.632812 376.492188 566.324219 L 379.648438 566.976562 L 380.175781 572.859375 C 381.113281 583.285156 381 633.964844 380.035156 634.5625 C 379.207031 635.074219 355.636719 621.71875 353.113281 619.304688 C 352.308594 618.539062 351.730469 614.761719 351.28125 607.339844 C 350.023438 586.683594 350.277344 587.03125 328.078125 575.351562 C 300.929688 561.066406 281.929688 550.417969 277.140625 546.800781 C 273.410156 543.988281 272.703125 543.019531 272.703125 540.75 C 272.703125 536.265625 270.351562 529.777344 267.859375 527.394531 C 265.039062 524.691406 260.121094 522.523438 256.816406 522.523438 C 255.492188 522.523438 252.339844 523.566406 249.816406 524.847656 C 243.664062 527.960938 240.355469 532.847656 240.300781 538.890625 C 240.1875 551.847656 253.328125 559.644531 265.039062 553.566406 C 270 550.996094 271.464844 551.40625 285.007812 559.171875 C 290.5625 562.355469 300.433594 567.90625 306.941406 571.503906 C 333.085938 585.953125 341.796875 591.894531 342.960938 596.082031 C 343.285156 597.238281 343.585938 603.746094 343.632812 610.542969 C 343.707031 621.519531 343.90625 623.136719 345.398438 625.035156 C 346.328125 626.21875 353.207031 630.265625 360.777344 634.089844 C 372.164062 639.839844 374.933594 640.921875 377.175781 640.503906 C 379.261719 640.109375 380.003906 640.328125 380.4375 641.464844 C 380.75 642.273438 380.738281 651.699219 380.414062 662.414062 C 379.90625 679.285156 380 682.039062 381.109375 682.960938 C 382.175781 683.847656 384.3125 683.109375 393.703125 678.609375 C 399.921875 675.632812 406.089844 672.945312 407.40625 672.644531 C 408.726562 672.339844 410.628906 671.222656 411.636719 670.160156 C 413.949219 667.71875 421.546875 662.65625 430.796875 657.398438 C 434.75 655.152344 441.789062 650.972656 446.4375 648.117188 C 451.085938 645.257812 458.316406 640.878906 462.5 638.382812 C 466.683594 635.890625 477.476562 629.105469 486.480469 623.3125 C 495.484375 617.515625 506.253906 611.082031 510.410156 609.015625 C 514.570312 606.949219 518.191406 604.691406 518.457031 604 C 519.007812 602.558594 528.496094 596.007812 538.507812 590.15625 C 544.097656 586.886719 557.964844 578.296875 574.097656 568.109375 C 575.492188 567.230469 582.910156 562.390625 590.582031 557.355469 C 598.253906 552.324219 610.617188 544.65625 618.058594 540.3125 C 625.496094 535.972656 632.1875 531.902344 632.925781 531.269531 C 634.117188 530.246094 634.328125 522.964844 634.835938 465.238281 C 635.148438 429.554688 635.640625 395.984375 635.929688 390.636719 C 636.460938 380.820312 635.152344 306.726562 633.6875 263.824219 C 633.253906 251.035156 632.84375 236.292969 632.777344 231.0625 C 632.671875 222.84375 632.46875 221.558594 631.277344 221.621094 C 630.515625 221.65625 626.027344 224.175781 621.300781 227.21875 M 374.5625 281.667969 C 370.765625 283.679688 365.648438 286.445312 350.726562 294.5625 C 345.050781 297.648438 340.242188 300.175781 340.042969 300.175781 C 339.839844 300.175781 334.976562 302.773438 329.226562 305.945312 C 323.777344 308.953125 318.320312 311.957031 312.859375 314.949219 C 303.785156 319.910156 300.765625 321.96875 299.3125 324.179688 C 298.316406 325.699219 297.78125 330.109375 297.167969 341.726562 C 296.722656 350.257812 295.800781 365.039062 295.128906 374.574219 C 294.453125 384.105469 293.789062 397.363281 293.65625 404.035156 L 293.414062 416.164062 L 296.796875 419.042969 C 298.65625 420.628906 303.792969 424.097656 308.210938 426.753906 C 316.238281 431.578125 339.460938 446.5625 353.019531 455.660156 C 366.125 464.457031 373.902344 468.609375 376.027344 467.945312 C 379.386719 466.898438 394.117188 457.960938 415.394531 444.0625 C 421.308594 440.199219 428.429688 435.878906 431.21875 434.460938 C 438.90625 430.558594 451.558594 420.605469 453.179688 417.191406 C 454.335938 414.757812 454.6875 409.070312 455.324219 382.800781 C 455.746094 365.488281 456.300781 346.050781 456.5625 339.605469 L 457.039062 327.882812 L 454.019531 325.039062 C 450.679688 321.886719 446.683594 319.234375 432.910156 311.015625 C 403.925781 293.730469 379.957031 279.886719 379.011719 279.886719 C 378.417969 279.886719 376.417969 280.6875 374.5625 281.667969 M 168.714844 288.300781 C 164.804688 289.054688 162.910156 290.164062 159.738281 293.554688 C 151.808594 302.035156 154.539062 315.792969 165.085938 320.457031 C 171.769531 323.414062 178.152344 322.472656 184.730469 317.566406 C 186.332031 316.371094 188.15625 315.394531 188.785156 315.394531 C 189.414062 315.394531 192.667969 316.671875 196.019531 318.234375 C 199.367188 319.796875 202.929688 321.335938 203.933594 321.648438 C 204.941406 321.964844 206.207031 322.761719 206.753906 323.421875 C 207.484375 324.300781 207.824219 337.429688 208.03125 372.632812 C 208.1875 399.042969 208.730469 430.304688 209.238281 442.109375 C 209.953125 458.820312 209.929688 463.84375 209.132812 464.808594 C 206.421875 468.070312 181.324219 482.152344 180.210938 481.035156 C 179.257812 480.085938 178.800781 436.253906 179.59375 421.640625 L 180.453125 405.722656 L 183.671875 401.917969 C 190.9375 393.339844 191.007812 393.210938 191.371094 388.175781 C 191.917969 380.605469 187.636719 373.851562 180.367188 370.8125 C 175.867188 368.933594 172.21875 369.183594 167.136719 371.714844 C 160.679688 374.933594 158.199219 379.113281 158.167969 386.832031 C 158.152344 391.863281 158.480469 393.230469 160.371094 395.964844 C 161.59375 397.734375 163.824219 400.089844 165.328125 401.199219 C 170.648438 405.125 170.640625 405.085938 171.5625 428.875 C 172.253906 446.738281 172.167969 454.253906 171.082031 469.875 L 169.753906 489.007812 L 167.4375 490.757812 C 164.261719 493.15625 155.511719 498.730469 145.886719 504.476562 C 134.253906 511.429688 118.75 522.019531 116.296875 524.683594 L 114.183594 526.988281 L 116.722656 526.402344 C 123.582031 524.824219 175.597656 495.839844 198.726562 480.710938 C 218.546875 467.75 240.910156 455.757812 245.292969 455.742188 C 246.722656 455.738281 249.578125 456.804688 251.632812 458.117188 C 262.3125 464.925781 269.703125 469.519531 277.199219 474.011719 C 281.765625 476.746094 288.042969 480.589844 291.148438 482.550781 C 294.257812 484.511719 297.558594 486.472656 298.488281 486.910156 C 302.050781 488.578125 342.332031 512.296875 348.292969 516.230469 C 353.574219 519.722656 366.339844 525.902344 368.261719 525.902344 C 370.472656 525.902344 365.175781 521.488281 353.882812 513.917969 C 347.59375 509.703125 340.167969 504.578125 337.375 502.523438 C 330.128906 497.191406 309.625 483.730469 297.691406 476.46875 C 292.085938 473.058594 284.953125 468.613281 281.84375 466.59375 C 264.871094 455.5625 259.785156 452.578125 253.257812 449.800781 L 246.070312 446.746094 L 242.039062 448.203125 C 236.875 450.070312 228.644531 454.324219 223.246094 457.917969 L 219.015625 460.734375 L 218.46875 445.765625 C 217.640625 423.269531 217.433594 363.054688 218.109375 342.445312 C 218.65625 325.820312 218.578125 324.023438 217.171875 321.351562 C 215.550781 318.273438 209.535156 314.652344 200.3125 311.199219 C 191.980469 308.082031 190.695312 307.167969 190.695312 304.355469 C 190.695312 294.699219 179.171875 286.28125 168.714844 288.300781 M 168.503906 297.707031 C 167.6875 298.179688 166.417969 299.738281 165.679688 301.164062 C 162.089844 308.109375 169.40625 316.011719 176.179688 312.507812 C 184.503906 308.203125 182.519531 296.753906 173.460938 296.820312 C 171.546875 296.832031 169.316406 297.234375 168.503906 297.707031 M 591.464844 330.253906 C 584.460938 333.292969 581.246094 337.167969 579.585938 344.589844 C 578.386719 349.9375 580.050781 354.910156 585.097656 361.050781 C 587.199219 363.605469 589.289062 367.027344 589.746094 368.65625 C 590.238281 370.421875 590.574219 390.75 590.578125 419.167969 C 590.582031 465.292969 590.53125 466.722656 588.976562 466.722656 C 585.410156 466.722656 568.578125 461.757812 566.4375 460.074219 C 565.175781 459.082031 564.578125 458.269531 565.105469 458.269531 C 565.792969 458.269531 566.070312 452.378906 566.082031 437.34375 L 566.101562 416.421875 L 569.75 413.972656 C 575.160156 410.34375 577.898438 405.515625 577.898438 399.609375 C 577.898438 393.371094 576.402344 389.96875 572.003906 386.199219 C 566.664062 381.632812 563.167969 380.230469 558.277344 380.699219 C 547.011719 381.78125 538.65625 395.507812 542.746094 406.21875 C 544.082031 409.710938 548.507812 414.605469 552.199219 416.671875 C 553.691406 417.507812 553.796875 419.355469 554.101562 449.777344 C 554.277344 467.5 554.15625 484.820312 553.835938 488.269531 L 553.246094 494.539062 L 545.070312 499.710938 C 536.617188 505.0625 526.832031 510.953125 516.636719 516.828125 L 510.746094 520.222656 L 505.175781 518.289062 C 497.757812 515.714844 492.546875 516.179688 487.148438 519.894531 C 481.835938 523.550781 478.984375 529.148438 478.984375 535.929688 C 478.984375 540.226562 479.386719 541.519531 481.816406 545.042969 C 487.109375 552.726562 497.050781 555.851562 504.949219 552.316406 C 511.960938 549.175781 515.707031 544.46875 516.636719 537.617188 C 516.910156 535.59375 517.292969 533.148438 517.484375 532.183594 C 517.878906 530.191406 527.785156 522.871094 537.320312 517.53125 C 546.144531 512.585938 559.050781 504.40625 562.867188 501.339844 L 566.0625 498.769531 L 566.0625 472.734375 L 570.503906 474.683594 C 572.945312 475.753906 576.460938 477.09375 578.324219 477.664062 C 580.183594 478.234375 585.789062 480.238281 590.777344 482.125 C 598.839844 485.164062 600.046875 485.417969 601.585938 484.378906 C 603.304688 483.222656 603.324219 482.640625 603.503906 425.578125 L 603.683594 367.949219 L 608.933594 363.019531 C 611.820312 360.304688 614.769531 356.671875 615.484375 354.945312 C 619.136719 346.140625 614.683594 334.335938 606.273438 330.515625 C 602.136719 328.636719 595.460938 328.519531 591.464844 330.253906 M 593.808594 342.054688 C 591.152344 343.5 590.246094 345.765625 590.988281 349.140625 C 591.761719 352.648438 594.273438 354.578125 597.894531 354.441406 C 601.371094 354.308594 603.632812 352.632812 604.785156 349.335938 C 606.898438 343.261719 600.007812 338.691406 593.808594 342.054688 M 169.625 381.402344 C 166.632812 384.390625 166.148438 388.515625 168.390625 391.933594 C 170.289062 394.832031 177.078125 394.953125 179.707031 392.132812 C 183.382812 388.183594 182.910156 383.078125 178.625 380.46875 C 174.832031 378.15625 172.644531 378.382812 169.625 381.402344 M 555.542969 394.625 C 553.710938 396.457031 553.347656 397.433594 553.75 399.441406 C 554.667969 404.046875 556.460938 405.851562 560.105469 405.851562 C 560.773438 405.867188 561.429688 405.78125 562.074219 405.597656 C 562.71875 405.414062 563.320312 405.140625 563.882812 404.773438 C 564.441406 404.40625 564.9375 403.964844 565.363281 403.449219 C 565.792969 402.933594 566.132812 402.367188 566.386719 401.746094 C 566.644531 401.128906 566.804688 400.484375 566.863281 399.816406 C 566.925781 399.152344 566.886719 398.488281 566.746094 397.835938 C 566.609375 397.179688 566.375 396.558594 566.050781 395.972656 C 565.722656 395.386719 565.320312 394.863281 564.835938 394.402344 C 562.035156 391.601562 558.480469 391.6875 555.542969 394.625 M 129.761719 429.460938 C 126.960938 432.261719 126.535156 435.757812 128.527344 439.609375 C 130.765625 443.941406 136.214844 444.402344 140.035156 440.582031 C 143.273438 437.34375 143.378906 433.230469 140.316406 429.589844 C 137.335938 426.042969 133.226562 425.992188 129.761719 429.460938 M 559.921875 519.101562 C 555.015625 522.210938 551.695312 528.308594 551.054688 535.386719 C 550.652344 539.820312 550.296875 540.5625 547.558594 542.691406 C 543.660156 545.71875 521.652344 560.15625 501.8125 572.707031 C 487.394531 581.824219 451.074219 603.242188 445.3125 606.019531 L 439.117188 609.007812 L 432.121094 607.917969 C 428.273438 607.320312 423.78125 607.082031 422.140625 607.390625 C 416.132812 608.515625 408.699219 615.894531 407.492188 621.929688 C 407.089844 623.929688 407.539062 625.355469 409.472656 628.257812 C 410.84375 630.320312 412.601562 633.363281 413.378906 635.027344 C 414.152344 636.6875 415.839844 639.3125 417.132812 640.859375 C 419.164062 643.292969 420.121094 643.726562 424.199219 644.066406 C 430.605469 644.597656 434.105469 643.246094 438.582031 638.515625 C 441.347656 635.597656 442.648438 633.34375 443.414062 630.152344 C 444.328125 626.351562 445.214844 625.117188 450.253906 620.636719 C 456.269531 615.292969 482.542969 597.253906 495.046875 589.882812 C 499 587.554688 508.320312 581.65625 515.761719 576.773438 C 531.5 566.449219 543.691406 559.167969 552.335938 554.929688 C 558.097656 552.101562 558.703125 551.972656 562.21875 552.859375 C 570.949219 555.054688 578.335938 553.296875 583.554688 547.777344 C 587.003906 544.128906 588.046875 541.289062 588.046875 535.539062 C 588.046875 528.347656 584.535156 522.867188 577.054688 518.382812 C 572.398438 515.59375 564.964844 515.902344 559.925781 519.101562 M 566.488281 529.417969 C 561.945312 531.898438 561.375 536.5625 565.152344 540.339844 C 566.511719 541.699219 568.445312 542.8125 569.445312 542.8125 C 570.449219 542.8125 572.378906 541.699219 573.738281 540.339844 C 576.972656 537.105469 577.0625 533.375 573.972656 530.511719 C 571.570312 528.285156 569.191406 527.9375 566.488281 529.417969 M 492.214844 531.359375 C 489.167969 534.183594 489.300781 537.277344 492.601562 540.359375 C 495.945312 543.484375 498.738281 543.476562 501.878906 540.339844 C 504.925781 537.292969 505.066406 534.152344 502.273438 531.359375 C 499.488281 528.578125 495.214844 528.574219 492.214844 531.359375 M 252.410156 532.023438 C 249.363281 533.621094 247.542969 539.222656 248.960938 542.644531 C 250.078125 545.34375 254.210938 547.882812 257.484375 547.882812 C 258.507812 547.882812 260.679688 546.550781 262.3125 544.917969 C 264.980469 542.246094 265.222656 541.632812 264.707031 538.789062 C 263.632812 532.875 257.371094 529.429688 252.410156 532.023438 M 302.226562 609.246094 C 299.226562 612.441406 299.355469 618.039062 302.503906 621.1875 C 305.960938 624.644531 310.910156 624.46875 314.214844 620.769531 C 316.96875 617.6875 317.242188 615.703125 315.402344 612.144531 C 312.59375 606.71875 305.972656 605.261719 302.226562 609.246094 M 421.035156 620.976562 C 416.832031 625.175781 419.875 632.777344 425.691406 632.613281 C 428.96875 632.519531 433.332031 628.808594 433.332031 626.117188 C 433.332031 624.347656 431.257812 620.714844 429.578125 619.546875 C 427.585938 618.164062 423.09375 618.914062 421.035156 620.976562 " fill-opacity="1" fill-rule="evenodd"/></svg>